<svg width="295" height="295" viewBox="0 0 295 295" fill="none" xmlns="http://www.w3.org/2000/svg">
    <rect width="295" height="295" rx="70" fill="#8B5CF6"/>
    <g filter="url(#filter0_d_2_3)">
        <path d="M138.089 83.7997C140.419 81.4742 144.197 81.4742 146.526 83.7997L175.449 112.671L195.977 92.1803C198.307 89.855 202.083 89.855 204.413 92.1803C206.743 94.5058 206.743 98.2766 204.413 100.602L183.886 121.093L212.81 149.965C215.139 152.291 215.139 156.06 212.81 158.386C210.48 160.711 206.703 160.711 204.373 158.386L197.544 151.569L129.955 219.038C128.605 220.387 126.688 221.007 124.801 220.708L90.2433 215.229L71.1829 234.256C68.8533 236.581 65.0768 236.581 62.7473 234.256C60.4176 231.931 60.4176 228.16 62.7473 225.834L81.7689 206.845L75.67 171.734C75.3386 169.826 75.9577 167.876 77.3297 166.507L144.918 99.0372L138.089 92.2203C135.76 89.8948 135.76 86.1252 138.089 83.7997ZM87.9532 172.742L93.3232 203.657L123.669 208.469L189.107 143.147L153.354 107.458L87.9532 172.742Z"
              fill="white"/>
        <path d="M226.046 80.5113C226.046 73.5683 220.407 67.9399 213.452 67.9399C206.497 67.9399 200.858 73.5683 200.858 80.5113C200.858 87.4543 206.497 93.0827 213.452 93.0827V101.023C202.104 101.023 192.904 91.8394 192.904 80.5113C192.904 69.1832 202.104 60 213.452 60C224.8 60 234 69.1832 234 80.5113C234 91.8394 224.8 101.023 213.452 101.023V93.0827C220.407 93.0827 226.046 87.4543 226.046 80.5113Z"
              fill="white"/>
        <path d="M153.683 161.347L150.871 164.154L128.335 141.657L131.146 138.851L153.683 161.347ZM160.311 154.73L157.499 157.537L134.963 135.041L137.775 132.234L160.311 154.73ZM168.265 148.114L165.453 150.921L142.917 128.424L145.729 125.617L168.265 148.114Z"
              fill="white"/>
    </g>
    <defs>
        <filter id="filter0_d_2_3" x="54.3" y="60" width="186.4" height="193.7" filterUnits="userSpaceOnUse"
                color-interpolation-filters="sRGB">
            <feFlood flood-opacity="0" result="BackgroundImageFix"/>
            <feColorMatrix in="SourceAlpha" type="matrix" values="0 0 0 0 0 0 0 0 0 0 0 0 0 0 0 0 0 0 127 0"
                           result="hardAlpha"/>
            <feOffset dy="11"/>
            <feGaussianBlur stdDeviation="3.35"/>
            <feComposite in2="hardAlpha" operator="out"/>
            <feColorMatrix type="matrix" values="0 0 0 0 0 0 0 0 0 0 0 0 0 0 0 0 0 0 0.25 0"/>
            <feBlend mode="normal" in2="BackgroundImageFix" result="effect1_dropShadow_2_3"/>
            <feBlend mode="normal" in="SourceGraphic" in2="effect1_dropShadow_2_3" result="shape"/>
        </filter>
    </defs>
</svg>
